<?xml version="1.0" standalone="no"?><svg xmlns:xlink="http://www.w3.org/1999/xlink" xmlns="http://www.w3.org/2000/svg" viewBox="0 0 1000 642.8592432309658" preserveAspectRatio="xMaxYMax slice"><g transform="scale(1.0139735697649304)"><rect x="0" y="0" width="986.2222222222222" height="634" fill="#ffffff"/><rect x="281.77777777777777" y="70.44444444444444" width="70.44444444444444" height="70.44444444444444" fill="#ffffff"/><rect x="211.33333333333331" y="140.88888888888889" width="70.44444444444444" height="70.44444444444444" fill="#ffffff"/><rect x="211.33" y="140.89" width="35.22" height="35.22" fill="#5e38b4"/><rect x="211.33" y="176.11" width="35.22" height="35.22" fill="#d2f1fb"/><rect x="352.22222222222223" y="140.88888888888889" width="70.44444444444444" height="70.44444444444444" fill="#ffffff"/><rect x="634" y="140.88888888888889" width="70.44444444444444" height="70.44444444444444" fill="#ffffff"/><rect x="669.22" y="140.89" width="35.22" height="35.22" fill="#fcfeff"/><rect x="634" y="176.11" width="35.22" height="35.22" fill="#abe6f8"/><rect x="704.4444444444445" y="140.88888888888889" width="70.44444444444444" height="70.44444444444444" fill="#ffffff"/><rect x="739.67" y="140.89" width="35.22" height="35.22" fill="#8599f4"/><rect x="140.88888888888889" y="211.33333333333331" width="70.44444444444444" height="70.44444444444444" fill="#ffffff"/><rect x="140.89" y="211.33" width="35.22" height="35.22" fill="#5974f0"/><rect x="176.11" y="246.56" width="35.22" height="35.22" fill="#e8ecfd"/><rect x="211.33333333333331" y="211.33333333333331" width="70.44444444444444" height="70.44444444444444" fill="#ffffff"/><rect x="281.77777777777777" y="211.33333333333331" width="70.44444444444444" height="70.44444444444444" fill="#ffffff"/><rect x="317" y="211.33" width="35.22" height="35.22" fill="#f84d9b"/><rect x="352.22222222222223" y="211.33333333333331" width="70.44444444444444" height="70.44444444444444" fill="#ffffff"/><rect x="352.22" y="211.33" width="35.22" height="35.22" fill="#7a90f3"/><rect x="387.44" y="211.33" width="35.22" height="35.22" fill="#6440b7"/><rect x="493.1111111111111" y="211.33333333333331" width="70.44444444444444" height="70.44444444444444" fill="#ffffff"/><rect x="493.11" y="211.33" width="35.22" height="35.22" fill="#fdc4de"/><rect x="528.33" y="246.56" width="35.22" height="35.22" fill="#e9e4f5"/><rect x="634" y="211.33333333333331" width="70.44444444444444" height="70.44444444444444" fill="#ffffff"/><rect x="634" y="211.33" width="35.22" height="35.22" fill="#4563ee"/><rect x="915.7777777777777" y="211.33333333333331" width="70.44444444444444" height="70.44444444444444" fill="#ffffff"/><rect x="915.78" y="211.33" width="35.22" height="35.22" fill="#b594db"/><rect x="951" y="211.33" width="35.22" height="35.22" fill="#fb8fc0"/><rect x="951" y="246.56" width="35.22" height="35.22" fill="#c1cbf9"/><rect x="140.88888888888889" y="281.77777777777777" width="70.44444444444444" height="70.44444444444444" fill="#ffffff"/><rect x="352.22222222222223" y="281.77777777777777" width="70.44444444444444" height="70.44444444444444" fill="#ffffff"/><rect x="352.22" y="281.78" width="35.22" height="35.22" fill="#bfa3e0"/><rect x="387.44" y="317" width="35.22" height="35.22" fill="#a894d7"/><rect x="422.66666666666663" y="281.77777777777777" width="70.44444444444444" height="70.44444444444444" fill="#ffffff"/><rect x="422.67" y="281.78" width="35.22" height="35.22" fill="#4663ee"/><rect x="422.67" y="317" width="35.22" height="35.22" fill="#fcbad8"/><rect x="457.89" y="317" width="35.22" height="35.22" fill="#b3a1dc"/><rect x="493.1111111111111" y="281.77777777777777" width="70.44444444444444" height="70.44444444444444" fill="#ffffff"/><rect x="493.11" y="281.78" width="35.22" height="35.22" fill="#9363cb"/><rect x="528.33" y="281.78" width="35.22" height="35.22" fill="#657ef1"/><rect x="774.8888888888889" y="281.77777777777777" width="70.44444444444444" height="70.44444444444444" fill="#ffffff"/><rect x="774.89" y="281.78" width="35.22" height="35.22" fill="#f8f7fc"/><rect x="810.11" y="281.78" width="35.22" height="35.22" fill="#f95aa3"/><rect x="774.89" y="317" width="35.22" height="35.22" fill="#eefafe"/><rect x="915.7777777777777" y="281.77777777777777" width="70.44444444444444" height="70.44444444444444" fill="#ffffff"/><rect x="915.78" y="281.78" width="35.22" height="35.22" fill="#dcccee"/><rect x="951" y="281.78" width="35.22" height="35.22" fill="#fef1f7"/><rect x="915.78" y="317" width="35.22" height="35.22" fill="#5e78f0"/><rect x="0" y="352.22222222222223" width="70.44444444444444" height="70.44444444444444" fill="#ffffff"/><rect x="0" y="352.22" width="35.22" height="35.22" fill="#5f18b1"/><rect x="35.22" y="352.22" width="35.22" height="35.22" fill="#fdfcfe"/><rect x="0" y="387.44" width="35.22" height="35.22" fill="#fb95c4"/><rect x="35.22" y="387.44" width="35.22" height="35.22" fill="#9262ca"/><rect x="70.44444444444444" y="352.22222222222223" width="70.44444444444444" height="70.44444444444444" fill="#ffffff"/><rect x="70.44" y="387.44" width="35.22" height="35.22" fill="#c0a5e1"/><rect x="105.67" y="387.44" width="35.22" height="35.22" fill="#fa80b8"/><rect x="140.88888888888889" y="352.22222222222223" width="70.44444444444444" height="70.44444444444444" fill="#ffffff"/><rect x="140.89" y="387.44" width="35.22" height="35.22" fill="#fcb7d7"/><rect x="211.33333333333331" y="352.22222222222223" width="70.44444444444444" height="70.44444444444444" fill="#ffffff"/><rect x="211.33" y="352.22" width="35.22" height="35.22" fill="#fcfbfe"/><rect x="211.33" y="387.44" width="35.22" height="35.22" fill="#6744b8"/><rect x="246.56" y="387.44" width="35.22" height="35.22" fill="#d9dffc"/><rect x="422.66666666666663" y="352.22222222222223" width="70.44444444444444" height="70.44444444444444" fill="#ffffff"/><rect x="422.67" y="352.22" width="35.22" height="35.22" fill="#b7a6dd"/><rect x="422.67" y="387.44" width="35.22" height="35.22" fill="#f2eff9"/><rect x="457.89" y="387.44" width="35.22" height="35.22" fill="#78d6f4"/><rect x="563.5555555555555" y="352.22222222222223" width="70.44444444444444" height="70.44444444444444" fill="#ffffff"/><rect x="563.56" y="352.22" width="35.22" height="35.22" fill="#a4b2f7"/><rect x="598.78" y="352.22" width="35.22" height="35.22" fill="#b493db"/><rect x="563.56" y="387.44" width="35.22" height="35.22" fill="#3e11a5"/><rect x="634" y="352.22222222222223" width="70.44444444444444" height="70.44444444444444" fill="#ffffff"/><rect x="669.22" y="352.22" width="35.22" height="35.22" fill="#f83e93"/><rect x="669.22" y="387.44" width="35.22" height="35.22" fill="#bdaee0"/><rect x="704.4444444444445" y="352.22222222222223" width="70.44444444444444" height="70.44444444444444" fill="#ffffff"/><rect x="704.44" y="352.22" width="35.22" height="35.22" fill="#b19fdb"/><rect x="704.44" y="387.44" width="35.22" height="35.22" fill="#9ae0f7"/><rect x="739.67" y="387.44" width="35.22" height="35.22" fill="#6744b8"/><rect x="774.8888888888889" y="352.22222222222223" width="70.44444444444444" height="70.44444444444444" fill="#ffffff"/><rect x="774.89" y="352.22" width="35.22" height="35.22" fill="#5e38b4"/><rect x="810.11" y="352.22" width="35.22" height="35.22" fill="#fdcee4"/><rect x="810.11" y="387.44" width="35.22" height="35.22" fill="#feffff"/><rect x="845.3333333333333" y="352.22222222222223" width="70.44444444444444" height="70.44444444444444" fill="#ffffff"/><rect x="880.56" y="352.22" width="35.22" height="35.22" fill="#f4fcfe"/><rect x="845.33" y="387.44" width="35.22" height="35.22" fill="#ad89d7"/><rect x="880.56" y="387.44" width="35.22" height="35.22" fill="#fed8e9"/><rect x="0" y="422.66666666666663" width="70.44444444444444" height="70.44444444444444" fill="#ffffff"/><rect x="0" y="422.67" width="35.22" height="35.22" fill="#570cad"/><rect x="0" y="457.89" width="35.22" height="35.22" fill="#e4d8f2"/><rect x="35.22" y="457.89" width="35.22" height="35.22" fill="#a9e5f8"/><rect x="70.44444444444444" y="422.66666666666663" width="70.44444444444444" height="70.44444444444444" fill="#ffffff"/><rect x="70.44" y="422.67" width="35.22" height="35.22" fill="#e8ecfd"/><rect x="105.67" y="422.67" width="35.22" height="35.22" fill="#96a7f5"/><rect x="70.44" y="457.89" width="35.22" height="35.22" fill="#677ff1"/><rect x="105.67" y="457.89" width="35.22" height="35.22" fill="#7087f2"/><rect x="140.88888888888889" y="422.66666666666663" width="70.44444444444444" height="70.44444444444444" fill="#ffffff"/><rect x="140.89" y="422.67" width="35.22" height="35.22" fill="#b594db"/><rect x="176.11" y="422.67" width="35.22" height="35.22" fill="#b5e9f9"/><rect x="176.11" y="457.89" width="35.22" height="35.22" fill="#ced6fb"/><rect x="211.33333333333331" y="422.66666666666663" width="70.44444444444444" height="70.44444444444444" fill="#ffffff"/><rect x="211.33" y="422.67" width="35.22" height="35.22" fill="#e0d9f1"/><rect x="246.56" y="422.67" width="35.22" height="35.22" fill="#fdfeff"/><rect x="211.33" y="457.89" width="35.22" height="35.22" fill="#a590d5"/><rect x="246.56" y="457.89" width="35.22" height="35.22" fill="#a67ed4"/><rect x="281.77777777777777" y="422.66666666666663" width="70.44444444444444" height="70.44444444444444" fill="#ffffff"/><rect x="281.78" y="422.67" width="35.22" height="35.22" fill="#fbfafd"/><rect x="317" y="422.67" width="35.22" height="35.22" fill="#fff9fc"/><rect x="317" y="457.89" width="35.22" height="35.22" fill="#8853c5"/><rect x="352.22222222222223" y="422.66666666666663" width="70.44444444444444" height="70.44444444444444" fill="#ffffff"/><rect x="352.22" y="422.67" width="35.22" height="35.22" fill="#bea1df"/><rect x="387.44" y="422.67" width="35.22" height="35.22" fill="#74d5f3"/><rect x="352.22" y="457.89" width="35.22" height="35.22" fill="#c8bce6"/><rect x="387.44" y="457.89" width="35.22" height="35.22" fill="#546ff0"/><rect x="493.1111111111111" y="422.66666666666663" width="70.44444444444444" height="70.44444444444444" fill="#ffffff"/><rect x="493.11" y="422.67" width="35.22" height="35.22" fill="#bc9fdf"/><rect x="528.33" y="422.67" width="35.22" height="35.22" fill="#51caf0"/><rect x="493.11" y="457.89" width="35.22" height="35.22" fill="#6e85f2"/><rect x="528.33" y="457.89" width="35.22" height="35.22" fill="#91a3f5"/><rect x="563.5555555555555" y="422.66666666666663" width="70.44444444444444" height="70.44444444444444" fill="#ffffff"/><rect x="563.56" y="422.67" width="35.22" height="35.22" fill="#8b9ef5"/><rect x="598.78" y="422.67" width="35.22" height="35.22" fill="#fff6fa"/><rect x="563.56" y="457.89" width="35.22" height="35.22" fill="#8a9df4"/><rect x="598.78" y="457.89" width="35.22" height="35.22" fill="#b5a3dc"/><rect x="634" y="422.66666666666663" width="70.44444444444444" height="70.44444444444444" fill="#ffffff"/><rect x="634" y="422.67" width="35.22" height="35.22" fill="#5ccef1"/><rect x="669.22" y="422.67" width="35.22" height="35.22" fill="#7086f2"/><rect x="634" y="457.89" width="35.22" height="35.22" fill="#6a27b7"/><rect x="669.22" y="457.89" width="35.22" height="35.22" fill="#f4fcfe"/><rect x="774.8888888888889" y="422.66666666666663" width="70.44444444444444" height="70.44444444444444" fill="#ffffff"/><rect x="774.89" y="422.67" width="35.22" height="35.22" fill="#5b13b0"/><rect x="774.89" y="457.89" width="35.22" height="35.22" fill="#ccd4fa"/><rect x="810.11" y="457.89" width="35.22" height="35.22" fill="#6981f1"/><rect x="845.3333333333333" y="422.66666666666663" width="70.44444444444444" height="70.44444444444444" fill="#ffffff"/><rect x="845.33" y="422.67" width="35.22" height="35.22" fill="#a6e4f8"/><rect x="880.56" y="422.67" width="35.22" height="35.22" fill="#854fc4"/><rect x="845.33" y="457.89" width="35.22" height="35.22" fill="#eeeaf7"/><rect x="915.7777777777777" y="422.66666666666663" width="70.44444444444444" height="70.44444444444444" fill="#ffffff"/><rect x="915.78" y="422.67" width="35.22" height="35.22" fill="#9f89d2"/><rect x="951" y="422.67" width="35.22" height="35.22" fill="#a3e3f7"/><rect x="915.78" y="457.89" width="35.22" height="35.22" fill="#f9539f"/><rect x="0" y="493.1111111111111" width="70.44444444444444" height="70.44444444444444" fill="#ffffff"/><rect x="0" y="493.11" width="35.22" height="35.22" fill="#a1b0f7"/><rect x="35.22" y="493.11" width="35.22" height="35.22" fill="#3d0fa4"/><rect x="0" y="528.33" width="35.22" height="35.22" fill="#f1eef9"/><rect x="35.22" y="528.33" width="35.22" height="35.22" fill="#cef0fb"/><rect x="70.44444444444444" y="493.1111111111111" width="70.44444444444444" height="70.44444444444444" fill="#ffffff"/><rect x="70.44" y="493.11" width="35.22" height="35.22" fill="#ced6fb"/><rect x="105.67" y="493.11" width="35.22" height="35.22" fill="#c9b1e5"/><rect x="70.44" y="528.33" width="35.22" height="35.22" fill="#fcb2d4"/><rect x="105.67" y="528.33" width="35.22" height="35.22" fill="#f1eef9"/><rect x="140.88888888888889" y="493.1111111111111" width="70.44444444444444" height="70.44444444444444" fill="#ffffff"/><rect x="176.11" y="493.11" width="35.22" height="35.22" fill="#d5cbeb"/><rect x="140.89" y="528.33" width="35.22" height="35.22" fill="#8c71c9"/><rect x="176.11" y="528.33" width="35.22" height="35.22" fill="#fcfeff"/><rect x="211.33333333333331" y="493.1111111111111" width="70.44444444444444" height="70.44444444444444" fill="#ffffff"/><rect x="211.33" y="493.11" width="35.22" height="35.22" fill="#e0d3f0"/><rect x="246.56" y="493.11" width="35.22" height="35.22" fill="#b0e7f8"/><rect x="211.33" y="528.33" width="35.22" height="35.22" fill="#7e60c3"/><rect x="246.56" y="528.33" width="35.22" height="35.22" fill="#feffff"/><rect x="281.77777777777777" y="493.1111111111111" width="70.44444444444444" height="70.44444444444444" fill="#ffffff"/><rect x="281.78" y="493.11" width="35.22" height="35.22" fill="#b797dc"/><rect x="317" y="493.11" width="35.22" height="35.22" fill="#fee4f0"/><rect x="281.78" y="528.33" width="35.22" height="35.22" fill="#6c2bb8"/><rect x="317" y="528.33" width="35.22" height="35.22" fill="#6e2db9"/><rect x="352.22222222222223" y="493.1111111111111" width="70.44444444444444" height="70.44444444444444" fill="#ffffff"/><rect x="352.22" y="493.11" width="35.22" height="35.22" fill="#cdb6e7"/><rect x="387.44" y="493.11" width="35.22" height="35.22" fill="#e4e8fd"/><rect x="352.22" y="528.33" width="35.22" height="35.22" fill="#dcf5fc"/><rect x="387.44" y="528.33" width="35.22" height="35.22" fill="#905ec9"/><rect x="422.66666666666663" y="493.1111111111111" width="70.44444444444444" height="70.44444444444444" fill="#ffffff"/><rect x="422.67" y="493.11" width="35.22" height="35.22" fill="#fb8abd"/><rect x="457.89" y="493.11" width="35.22" height="35.22" fill="#fdfcfe"/><rect x="422.67" y="528.33" width="35.22" height="35.22" fill="#fedaea"/><rect x="457.89" y="528.33" width="35.22" height="35.22" fill="#f8fdfe"/><rect x="493.1111111111111" y="493.1111111111111" width="70.44444444444444" height="70.44444444444444" fill="#ffffff"/><rect x="493.11" y="493.11" width="35.22" height="35.22" fill="#7d5ec2"/><rect x="528.33" y="493.11" width="35.22" height="35.22" fill="#8cdcf5"/><rect x="493.11" y="528.33" width="35.22" height="35.22" fill="#fa7eb7"/><rect x="528.33" y="528.33" width="35.22" height="35.22" fill="#bea1df"/><rect x="563.5555555555555" y="493.1111111111111" width="70.44444444444444" height="70.44444444444444" fill="#ffffff"/><rect x="563.56" y="493.11" width="35.22" height="35.22" fill="#f7fdfe"/><rect x="598.78" y="493.11" width="35.22" height="35.22" fill="#c1ecfa"/><rect x="563.56" y="528.33" width="35.22" height="35.22" fill="#bec9f9"/><rect x="598.78" y="528.33" width="35.22" height="35.22" fill="#52cbf1"/><rect x="634" y="493.1111111111111" width="70.44444444444444" height="70.44444444444444" fill="#ffffff"/><rect x="634" y="493.11" width="35.22" height="35.22" fill="#af8cd8"/><rect x="634" y="528.33" width="35.22" height="35.22" fill="#773abd"/><rect x="669.22" y="528.33" width="35.22" height="35.22" fill="#b0e7f8"/><rect x="704.4444444444445" y="493.1111111111111" width="70.44444444444444" height="70.44444444444444" fill="#ffffff"/><rect x="704.44" y="493.11" width="35.22" height="35.22" fill="#b798dc"/><rect x="739.67" y="493.11" width="35.22" height="35.22" fill="#aee7f8"/><rect x="704.44" y="528.33" width="35.22" height="35.22" fill="#ace6f8"/><rect x="739.67" y="528.33" width="35.22" height="35.22" fill="#611bb2"/><rect x="774.8888888888889" y="493.1111111111111" width="70.44444444444444" height="70.44444444444444" fill="#ffffff"/><rect x="774.89" y="493.11" width="35.22" height="35.22" fill="#8397f4"/><rect x="774.89" y="528.33" width="35.22" height="35.22" fill="#cad2fa"/><rect x="810.11" y="528.33" width="35.22" height="35.22" fill="#fa6eae"/><rect x="845.3333333333333" y="493.1111111111111" width="70.44444444444444" height="70.44444444444444" fill="#ffffff"/><rect x="845.33" y="493.11" width="35.22" height="35.22" fill="#7859c0"/><rect x="880.56" y="493.11" width="35.22" height="35.22" fill="#fb97c5"/><rect x="845.33" y="528.33" width="35.22" height="35.22" fill="#5d77f0"/><rect x="880.56" y="528.33" width="35.22" height="35.22" fill="#8a6fc8"/><rect x="0" y="563.5555555555555" width="70.44444444444444" height="70.44444444444444" fill="#ffffff"/><rect x="0" y="563.56" width="35.22" height="35.22" fill="#4663ee"/><rect x="35.22" y="563.56" width="35.22" height="35.22" fill="#5a33b2"/><rect x="0" y="598.78" width="35.22" height="35.22" fill="#feebf4"/><rect x="35.22" y="598.78" width="35.22" height="35.22" fill="#fca8ce"/><rect x="70.44444444444444" y="563.5555555555555" width="70.44444444444444" height="70.44444444444444" fill="#ffffff"/><rect x="70.44" y="563.56" width="35.22" height="35.22" fill="#fa7fb7"/><rect x="105.67" y="563.56" width="35.22" height="35.22" fill="#fed9ea"/><rect x="70.44" y="598.78" width="35.22" height="35.22" fill="#5873f0"/><rect x="105.67" y="598.78" width="35.22" height="35.22" fill="#f6fcfe"/><rect x="140.88888888888889" y="563.5555555555555" width="70.44444444444444" height="70.44444444444444" fill="#ffffff"/><rect x="140.89" y="563.56" width="35.22" height="35.22" fill="#dacaed"/><rect x="176.11" y="563.56" width="35.22" height="35.22" fill="#899cf4"/><rect x="140.89" y="598.78" width="35.22" height="35.22" fill="#a5e4f7"/><rect x="176.11" y="598.78" width="35.22" height="35.22" fill="#f3f0f9"/><rect x="211.33333333333331" y="563.5555555555555" width="70.44444444444444" height="70.44444444444444" fill="#ffffff"/><rect x="211.33" y="563.56" width="35.22" height="35.22" fill="#fcabd0"/><rect x="246.56" y="563.56" width="35.22" height="35.22" fill="#f84597"/><rect x="211.33" y="598.78" width="35.22" height="35.22" fill="#dad1ee"/><rect x="246.56" y="598.78" width="35.22" height="35.22" fill="#886dc8"/><rect x="281.77777777777777" y="563.5555555555555" width="70.44444444444444" height="70.44444444444444" fill="#ffffff"/><rect x="281.78" y="563.56" width="35.22" height="35.22" fill="#f7fdfe"/><rect x="317" y="563.56" width="35.22" height="35.22" fill="#6bd2f3"/><rect x="281.78" y="598.78" width="35.22" height="35.22" fill="#491eaa"/><rect x="317" y="598.78" width="35.22" height="35.22" fill="#f84999"/><rect x="352.22222222222223" y="563.5555555555555" width="70.44444444444444" height="70.44444444444444" fill="#ffffff"/><rect x="352.22" y="563.56" width="35.22" height="35.22" fill="#570cad"/><rect x="387.44" y="563.56" width="35.22" height="35.22" fill="#e7dcf3"/><rect x="352.22" y="598.78" width="35.22" height="35.22" fill="#f6f4fb"/><rect x="387.44" y="598.78" width="35.22" height="35.22" fill="#6880f1"/><rect x="422.66666666666663" y="563.5555555555555" width="70.44444444444444" height="70.44444444444444" fill="#ffffff"/><rect x="422.67" y="563.56" width="35.22" height="35.22" fill="#8b9ef5"/><rect x="457.89" y="563.56" width="35.22" height="35.22" fill="#5128ae"/><rect x="422.67" y="598.78" width="35.22" height="35.22" fill="#e4e8fd"/><rect x="457.89" y="598.78" width="35.22" height="35.22" fill="#8a6fc8"/><rect x="493.1111111111111" y="563.5555555555555" width="70.44444444444444" height="70.44444444444444" fill="#ffffff"/><rect x="493.11" y="563.56" width="35.22" height="35.22" fill="#58cdf1"/><rect x="528.33" y="563.56" width="35.22" height="35.22" fill="#fcabd0"/><rect x="493.11" y="598.78" width="35.22" height="35.22" fill="#ccd4fa"/><rect x="528.33" y="598.78" width="35.22" height="35.22" fill="#b7a6dd"/><rect x="563.5555555555555" y="563.5555555555555" width="70.44444444444444" height="70.44444444444444" fill="#ffffff"/><rect x="563.56" y="563.56" width="35.22" height="35.22" fill="#fee8f2"/><rect x="598.78" y="563.56" width="35.22" height="35.22" fill="#cec2e8"/><rect x="563.56" y="598.78" width="35.22" height="35.22" fill="#5d15b0"/><rect x="598.78" y="598.78" width="35.22" height="35.22" fill="#c6d0fa"/><rect x="634" y="563.5555555555555" width="70.44444444444444" height="70.44444444444444" fill="#ffffff"/><rect x="634" y="563.56" width="35.22" height="35.22" fill="#bcc7f9"/><rect x="669.22" y="563.56" width="35.22" height="35.22" fill="#b899dd"/><rect x="634" y="598.78" width="35.22" height="35.22" fill="#4216a7"/><rect x="669.22" y="598.78" width="35.22" height="35.22" fill="#fb86bb"/><rect x="704.4444444444445" y="563.5555555555555" width="70.44444444444444" height="70.44444444444444" fill="#ffffff"/><rect x="704.44" y="563.56" width="35.22" height="35.22" fill="#4216a7"/><rect x="739.67" y="563.56" width="35.22" height="35.22" fill="#f83990"/><rect x="704.44" y="598.78" width="35.22" height="35.22" fill="#fdd3e7"/><rect x="739.67" y="598.78" width="35.22" height="35.22" fill="#5772f0"/><rect x="774.8888888888889" y="563.5555555555555" width="70.44444444444444" height="70.44444444444444" fill="#ffffff"/><rect x="774.89" y="563.56" width="35.22" height="35.22" fill="#cceffb"/><rect x="810.11" y="563.56" width="35.22" height="35.22" fill="#d9f3fc"/><rect x="774.89" y="598.78" width="35.22" height="35.22" fill="#7188f2"/><rect x="810.11" y="598.78" width="35.22" height="35.22" fill="#f95ea5"/><rect x="845.3333333333333" y="563.5555555555555" width="70.44444444444444" height="70.44444444444444" fill="#ffffff"/><rect x="845.33" y="563.56" width="35.22" height="35.22" fill="#ffffff"/><rect x="880.56" y="563.56" width="35.22" height="35.22" fill="#c2ccf9"/><rect x="845.33" y="598.78" width="35.22" height="35.22" fill="#8b58c7"/><rect x="880.56" y="598.78" width="35.22" height="35.22" fill="#faf9fd"/><rect x="915.7777777777777" y="563.5555555555555" width="70.44444444444444" height="70.44444444444444" fill="#ffffff"/><rect x="915.78" y="563.56" width="35.22" height="35.22" fill="#f72585"/><rect x="951" y="563.56" width="35.22" height="35.22" fill="#8954c6"/><rect x="915.78" y="598.78" width="35.22" height="35.22" fill="#fffdfe"/><rect x="951" y="598.78" width="35.22" height="35.22" fill="#b3e8f9"/></g></svg>